# xmcd
#
# Track frame offsets:
#	150
#	17040
#	35570
#	56485
#	75925
#
# Disc length: 1412 seconds
#
# Revision: 1
# Processed by: cddbd v1.5.1PL0 Copyright (c) Steve Scherf et al.
# Submitted via: audiograbber 1.83.01
#
DISCID=2f058205
DTITLE=Phifer Marshall Band - In Your Face Good Time Blues Music
DYEAR=2005
DGENRE=Blues
TTITLE0=Little By Little
TTITLE1=Another Hoping Fool
TTITLE2=Let The Good Times Roll
TTITLE3=Hoochie Coochie Man
TTITLE4=Million Dollar Secret
EXTD=
EXTT0=
EXTT1=
EXTT2=
EXTT3=
EXTT4=
PLAYORDER=
